<svg width="35" height="36" viewBox="0 0 35 36" fill="none" xmlns="http://www.w3.org/2000/svg">
<mask id="mask0_1_2754" style="mask-type:luminance" maskUnits="userSpaceOnUse" x="0" y="0" width="35" height="36">
<path d="M0 0.5H34.9829V35.4829H0V0.5Z" fill="white"/>
</mask>
<g mask="url(#mask0_1_2754)">
<path d="M0 17.9914V35.4829H34.9829V0.5H0V17.9914ZM18.4275 5.97973C18.6598 6.36919 18.9741 6.92263 19.1313 7.2096L19.4182 7.74254L24.7545 7.75622L30.0976 7.77672L30.1181 8.98609L30.1318 10.2023H5.4661V7.74254H16.4734L16.3914 7.58542C16.3436 7.50343 16.084 7.12079 15.8106 6.73133C15.387 6.14371 15.3255 6.02072 15.4212 5.9866C15.7218 5.87042 17.7443 5.29649 17.8741 5.28967C17.9834 5.2828 18.1064 5.43997 18.4275 5.97973ZM12.4968 11.1247C13.0776 11.2955 13.5695 11.4321 13.5832 11.4321C13.7677 11.4321 12.572 14.0764 11.7452 15.5044L11.3421 16.1945V30.7001H8.81405V19.9387L8.28793 20.5195C8.00096 20.8406 7.49538 21.3736 7.16055 21.7084C6.6481 22.2209 6.5388 22.3028 6.46362 22.2209C6.41581 22.1662 6.10835 21.6674 5.78038 21.114C5.26112 20.2326 5.19276 20.0891 5.27475 19.9866C5.32261 19.9251 5.5754 19.6381 5.83506 19.358C7.96683 17.0417 10.0986 13.6391 11.144 10.8992C11.185 10.7899 11.2396 10.7489 11.3285 10.7762C11.39 10.7967 11.916 10.9539 12.4968 11.1247ZM20.1015 11.1999C20.737 11.4116 21.2494 11.6098 21.2494 11.644C21.2494 11.6781 21.0649 12.0744 20.8394 12.5254L20.4295 13.3453H24.5564C26.8316 13.3453 28.7037 13.3726 28.7242 13.4068C28.7447 13.4341 28.6969 13.8919 28.6217 14.4112C28.1777 17.4722 27.2348 20.1369 25.8545 22.2482C25.2533 23.1706 24.7682 23.765 23.9346 24.6191L23.2377 25.3433L24.0712 25.8148C25.5266 26.6415 27.4807 27.4204 29.6808 28.0422C30.2069 28.1857 30.6442 28.3155 30.651 28.3292C30.6579 28.336 30.4119 28.8758 30.0976 29.5181L29.5305 30.6933L29.1616 30.5908C26.4695 29.8187 23.101 28.3155 21.4407 27.1335L21.2562 27.0037L20.9283 27.2359C20.0878 27.8304 18.6803 28.5752 17.0815 29.2652C16.1386 29.6752 13.4466 30.7206 13.4261 30.6796C13.1118 30.2286 12.0254 28.4932 12.0459 28.4727C12.0595 28.4522 12.4832 28.3155 12.9751 28.1652C14.0888 27.8304 15.387 27.3658 16.2138 27.0037C16.9244 26.6894 18.4617 25.931 18.9058 25.6645L19.1996 25.4936L18.2909 24.5986C17.2933 23.6078 16.3914 22.5351 15.5988 21.3941L15.0864 20.6562L14.5329 21.1755L13.9727 21.6947L13.1049 20.786L12.2304 19.8841L13.2416 18.8865C15.4075 16.7479 16.9654 14.5957 18.3523 11.8353C18.6325 11.275 18.8785 10.8172 18.9127 10.8172C18.94 10.8172 19.4729 10.9881 20.1015 11.1999Z" fill="white"/>
<path d="M18.8237 16.058C18.6666 16.3108 18.6461 16.3859 18.7212 16.4064C18.9194 16.4679 20.9555 17.5475 21.8301 18.0463C22.322 18.3264 23.1146 18.8115 23.5929 19.1326C24.078 19.4538 24.488 19.6998 24.5016 19.6793C24.5631 19.6246 25.1029 18.34 25.3284 17.7183C25.5402 17.1443 25.8954 15.9282 25.8954 15.7847C25.8954 15.7573 24.3513 15.7368 22.4655 15.7368H19.0287L18.8237 16.058ZM17.0199 18.5177C16.9038 18.6612 16.8081 18.7979 16.8081 18.832C16.8081 18.9208 17.7373 20.2053 18.3728 20.9979C19.1722 21.9955 19.876 22.7539 20.5934 23.403L21.2015 23.9496L21.8096 23.3415C22.4723 22.6856 23.1624 21.8793 23.1624 21.7632C23.1624 21.6539 22.0487 20.8954 20.7505 20.1097C19.6505 19.4469 17.4435 18.2649 17.3001 18.2649C17.2591 18.2649 17.1361 18.381 17.0199 18.5177Z" fill="white"/>
</g>
</svg>
