<svg width="35" height="36" fill="none" xmlns="http://www.w3.org/2000/svg"><mask id="a" style="mask-type:luminance" maskUnits="userSpaceOnUse" x="0" y="0" width="35" height="36"><path d="M0 .5h34.983v34.983H0V.5z" fill="#fff"/></mask><g mask="url(#a)" fill="#fff"><path d="M0 17.991v17.492h34.983V.5H0v17.491zM18.427 5.98c.233.39.547.943.704 1.23l.287.533 5.337.013 5.343.02.02 1.21.014 1.216H5.466v-2.46h11.007l-.082-.157a24.05 24.05 0 00-.58-.854c-.424-.587-.486-.71-.39-.744.3-.117 2.323-.69 2.453-.697.11-.007.232.15.553.69zm-5.93 5.145c.58.17 1.072.307 1.086.307.185 0-1.011 2.644-1.838 4.072l-.403.69V30.7H8.814V19.94l-.526.58c-.287.322-.793.855-1.127 1.19-.513.512-.622.594-.697.512-.048-.055-.356-.554-.684-1.107-.519-.881-.587-1.025-.505-1.127.048-.062.3-.349.56-.629 2.132-2.316 4.264-5.719 5.309-8.459.041-.11.096-.15.184-.123.062.02.588.178 1.169.349zm7.605.075c.635.212 1.147.41 1.147.444 0 .034-.184.43-.41.881l-.41.82h4.127c2.276 0 4.148.028 4.168.062.02.027-.027.485-.102 1.004-.444 3.061-1.387 5.726-2.767 7.837-.602.923-1.087 1.517-1.92 2.371l-.697.724.833.472c1.456.826 3.41 1.605 5.61 2.227.526.144.963.273.97.287.007.007-.24.547-.553 1.19l-.567 1.174-.37-.102c-2.692-.772-6.06-2.276-7.72-3.457l-.185-.13-.328.232c-.84.594-2.248 1.34-3.847 2.03-.942.41-3.634 1.455-3.655 1.414-.314-.451-1.4-2.187-1.38-2.207.014-.02.437-.157.93-.308 1.113-.335 2.411-.8 3.238-1.161.71-.315 2.248-1.073 2.692-1.34l.294-.17-.91-.895a23.08 23.08 0 01-2.691-3.205l-.513-.738-.553.52-.56.519-.868-.909-.875-.902 1.012-.997c2.165-2.14 3.723-4.291 5.11-7.052.28-.56.526-1.018.56-1.018.028 0 .56.171 1.19.383z"/><path d="M18.824 16.058c-.157.253-.178.328-.103.348.198.062 2.235 1.142 3.11 1.64.491.28 1.284.765 1.762 1.087.485.32.895.567.909.546.061-.054.6-1.339.826-1.96.212-.575.567-1.79.567-1.934 0-.028-1.544-.048-3.43-.048H19.03l-.205.321zm-1.804 2.46c-.116.143-.212.28-.212.314 0 .089.93 1.373 1.565 2.166.8.997 1.503 1.756 2.22 2.405l.608.547.609-.608c.662-.656 1.352-1.463 1.352-1.579 0-.11-1.113-.868-2.412-1.653-1.1-.663-3.306-1.845-3.45-1.845-.04 0-.164.116-.28.253z"/></g></svg>